<svg xmlns="http://www.w3.org/2000/svg" viewBox="-14 -118.15 181.5 181.5" role="img" aria-label="gsx">
  <title>gsx</title>
  <path d="M29.800 13.800L20.400 13.800Q16.400 13.800 14.050 11.350Q11.700 8.900 11.700 4.800L11.700 4.800L11.700-17.600Q11.700-22 8.950-24.250Q6.200-26.500 2-26.500L2-26.500L2-35.800Q6.200-35.800 8.950-38.050Q11.700-40.300 11.700-44.600L11.700-44.600L11.700-67Q11.700-71.100 14.050-73.550Q16.400-76 20.400-76L20.400-76L29.800-76L29.800-67.900L21.500-67.900L21.500-44.400Q21.500-42 20.750-39.900Q20-37.800 18.650-36.050Q17.300-34.300 15.500-33.150Q13.700-32 11.600-31.600L11.600-31.600L11.600-30.600Q13.700-30.200 15.500-29.050Q17.300-27.900 18.650-26.150Q20-24.400 20.750-22.300Q21.500-20.200 21.500-17.800L21.500-17.800L21.500 5.700L29.800 5.700L29.800 13.800Z" fill="#9AAEBA"></path>
  <path d="M123.500-76L132.900-76Q136.900-76 139.350-73.550Q141.800-71.100 141.800-67L141.800-67L141.800-44.600Q141.800-40.300 144.550-38.050Q147.300-35.800 151.500-35.800L151.500-35.800L151.500-26.500Q147.300-26.500 144.550-24.250Q141.800-22 141.800-17.600L141.800-17.600L141.800 4.800Q141.800 8.900 139.350 11.350Q136.900 13.800 132.900 13.800L132.900 13.800L123.500 13.800L123.500 5.700L132 5.700L132-17.800Q132-20.200 132.750-22.300Q133.500-24.400 134.800-26.150Q136.100-27.900 137.900-29.050Q139.700-30.200 141.900-30.600L141.900-30.600L141.900-31.600Q139.700-32 137.900-33.150Q136.100-34.300 134.800-36.050Q133.500-37.800 132.750-39.900Q132-42 132-44.400L132-44.400L132-67.900L123.500-67.900L123.500-76Z" fill="#9AAEBA"></path>
  <path d="M103.900 4.400L103.900 4.400Q103.900 8.500 102.450 11.650Q101 14.800 97.700 16.900Q94.400 19 89.200 20.100Q84 21.200 76.500 21.200L76.500 21.200Q69.900 21.200 65.300 20.350Q60.700 19.500 57.750 17.950Q54.800 16.400 53.500 14.100Q52.200 11.800 52.200 8.900L52.200 8.900Q52.200 4.500 54.650 2.050Q57.100-0.400 61.500-1.100L61.500-1.100L61.500-2.200Q58.300-3 56.550-5.350Q54.800-7.700 54.800-10.900L54.800-10.900Q54.800-12.900 55.600-14.450Q56.400-16 57.750-17.100Q59.100-18.200 60.800-18.950Q62.500-19.700 64.400-20.100L64.400-20.100L64.400-20.500Q59.600-22.700 57.250-26.600Q54.900-30.500 54.900-35.700L54.900-35.700Q54.900-43.700 60.400-48.550Q65.900-53.400 76.500-53.400L76.500-53.400Q78.900-53.400 81.250-53.100Q83.600-52.800 85.600-52.100L85.600-52.100L85.600-53.800Q85.600-61.400 93-61.400L93-61.400L101.100-61.400L101.100-51.600L90-51.600L90-50.200Q94.100-47.900 96.100-44.200Q98.100-40.500 98.100-35.700L98.100-35.700Q98.100-27.800 92.650-23Q87.200-18.200 76.500-18.200L76.500-18.200Q71.900-18.200 68.500-19.100L68.500-19.100Q67-18.400 65.900-17.250Q64.800-16.100 64.800-14.400L64.800-14.400Q64.800-10.500 71.600-10.500L71.600-10.500L85.600-10.500Q95.200-10.500 99.550-6.550Q103.900-2.600 103.900 4.400ZM91.900 5.900L91.900 5.900Q91.900 3.400 89.900 2Q87.900 0.600 83 0.600L83 0.600L65.200 0.600Q62.500 2.600 62.500 6L62.500 6Q62.500 9 65 10.700Q67.500 12.400 73.500 12.400L73.500 12.400L79.900 12.400Q86.200 12.400 89.050 10.800Q91.900 9.200 91.900 5.900ZM76.500-26.900L76.500-26.900Q85.900-26.900 85.900-34.900L85.900-34.900L85.900-36.600Q85.900-44.600 76.500-44.600L76.500-44.600Q67.100-44.600 67.100-36.600L67.100-36.600L67.100-34.900Q67.100-26.900 76.500-26.900Z" fill="#2F73A0"></path>
</svg>